<svg width="1032" height="47" viewBox="0 0 1032 47" fill="none" xmlns="http://www.w3.org/2000/svg">
<path d="M0 5H71.4771C74.8288 5 77.9576 6.67911 79.8104 9.47213L97.698 36.4377C101.653 42.4005 110.409 42.4005 114.364 36.4377L126.886 17.5623C130.841 11.5995 139.597 11.5995 143.552 17.5623L156.073 36.4377C160.028 42.4005 168.784 42.4005 172.739 36.4377L185.261 17.5623C189.216 11.5995 197.972 11.5995 201.927 17.5623L214.448 36.4377C218.403 42.4005 227.159 42.4005 231.114 36.4377L243.636 17.5623C247.591 11.5995 256.347 11.5995 260.302 17.5623L272.823 36.4377C276.778 42.4005 285.534 42.4005 289.489 36.4377L302.011 17.5623C305.966 11.5995 314.722 11.5995 318.677 17.5623L331.198 36.4377C335.153 42.4005 343.909 42.4005 347.864 36.4377L360.386 17.5623C364.341 11.5995 373.097 11.5995 377.052 17.5623L389.573 36.4377C393.528 42.4005 402.284 42.4005 406.239 36.4377L418.761 17.5623C422.716 11.5995 431.472 11.5995 435.427 17.5623L447.948 36.4377C451.903 42.4005 460.659 42.4005 464.614 36.4377L477.136 17.5623C481.091 11.5995 489.847 11.5995 493.802 17.5623L506.323 36.4377C510.278 42.4005 519.034 42.4005 522.989 36.4377L535.511 17.5623C539.466 11.5995 548.222 11.5995 552.177 17.5623L564.698 36.4377C568.653 42.4005 577.409 42.4005 581.364 36.4377L593.886 17.5623C597.841 11.5995 606.597 11.5995 610.552 17.5623L623.073 36.4377C627.028 42.4005 635.784 42.4005 639.739 36.4377L652.261 17.5623C656.216 11.5995 664.972 11.5995 668.927 17.5623L681.448 36.4377C685.403 42.4005 694.159 42.4005 698.114 36.4377L710.636 17.5623C714.591 11.5995 723.347 11.5995 727.302 17.5623L739.823 36.4377C743.778 42.4005 752.534 42.4005 756.489 36.4377L769.011 17.5623C772.966 11.5995 781.722 11.5995 785.677 17.5623L798.198 36.4377C802.153 42.4005 810.909 42.4005 814.864 36.4377L827.386 17.5623C831.341 11.5995 840.097 11.5995 844.052 17.5623L856.573 36.4377C860.528 42.4005 869.284 42.4005 873.239 36.4377L885.761 17.5623C889.716 11.5995 898.472 11.5995 902.427 17.5623L915.29 36.9531C919.154 42.7774 927.648 42.9427 931.735 37.2729L952.007 9.15225C953.886 6.54494 956.905 5 960.119 5H1031.84" stroke="white" stroke-width="10"/>
</svg>
